<!DOCTYPE svg PUBLIC "-//W3C//DTD SVG 1.1//EN" "http://www.w3.org/Graphics/SVG/1.1/DTD/svg11.dtd">
<!-- Uploaded to: SVG Repo, www.svgrepo.com, Transformed by: SVG Repo Mixer Tools -->
<svg width="800px" height="800px" viewBox="-51.2 -51.2 614.40 614.40" xmlns="http://www.w3.org/2000/svg" fill="#ff0000" stroke="#ff0000">
<g id="SVGRepo_bgCarrier" stroke-width="0" transform="translate(0,0), scale(1)">
<rect x="-51.2" y="-51.2" width="614.40" height="614.40" rx="61.44" fill="#7ed0ec" strokewidth="0"/>
</g>
<g id="SVGRepo_tracerCarrier" stroke-linecap="round" stroke-linejoin="round" stroke="#CCCCCC" stroke-width="24.576">
<path fill="#c70000" d="M256 17.108c-75.73 0-137.122 61.392-137.122 137.122.055 23.25 6.022 46.107 11.58 56.262L256 494.892l119.982-274.244h-.063c11.27-20.324 17.188-43.18 17.202-66.418C393.122 78.5 331.73 17.108 256 17.108zm0 68.56a68.56 68.56 0 0 1 68.56 68.562A68.56 68.56 0 0 1 256 222.79a68.56 68.56 0 0 1-68.56-68.56A68.56 68.56 0 0 1 256 85.67z"/>
</g>
<g id="SVGRepo_iconCarrier">
<path fill="#c70000" d="M256 17.108c-75.73 0-137.122 61.392-137.122 137.122.055 23.25 6.022 46.107 11.58 56.262L256 494.892l119.982-274.244h-.063c11.27-20.324 17.188-43.18 17.202-66.418C393.122 78.5 331.73 17.108 256 17.108zm0 68.56a68.56 68.56 0 0 1 68.56 68.562A68.56 68.56 0 0 1 256 222.79a68.56 68.56 0 0 1-68.56-68.56A68.56 68.56 0 0 1 256 85.67z"/>
</g>
</svg>